 <svg  version="1.0" xmlns="http://www.w3.org/2000/svg"  width="300.000000pt" height="300.000000pt" viewBox="0 0 300.000000 300.000000"  preserveAspectRatio="xMidYMid meet">  <g transform="translate(0.000000,300.000000) scale(0.100000,-0.100000)" fill="#3f8307" stroke="none"> <path d="M1361 2355 c-84 -19 -192 -72 -264 -129 -133 -107 -236 -311 -237 -469 0 -34 -8 -46 -68 -105 -47 -46 -80 -90 -103 -137 -31 -63 -34 -78 -34 -155 0 -70 4 -93 23 -130 56 -107 136 -153 272 -154 62 -1 89 -5 99 -16 9 -11 9 -8 -2 10 -13 23 -22 25 -98 30 -56 3 -100 12 -131 27 -49 22 -97 67 -98 91 0 7 -5 10 -11 6 -8 -5 -10 1 -7 19 3 16 1 25 -6 24 -7 -1 -12 24 -14 68 -4 85 5 138 20 129 6 -4 8 -3 4 4 -8 13 34 103 45 96 4 -2 11 1 15 7 4 8 3 9 -4 5 -25 -15 -10 10 16 28 15 10 39 33 53 52 l26 34 16 -87 c10 -54 31 -117 55 -167 41 -84 154 -246 173 -246 5 0 7 -4 4 -10 -3 -5 -2 -10 4 -10 6 0 21 -11 34 -24 13 -13 34 -27 45 -31 13 -3 19 -11 16 -17 -5 -8 5 -9 31 -5 29 5 44 2 57 -10 18 -17 26 -5 8 13 -6 6 -4 10 8 11 20 2 34 5 82 20 19 6 42 11 50 11 8 0 40 3 70 6 30 2 107 5 170 7 120 2 299 21 337 35 12 5 23 14 24 19 1 6 15 25 31 44 27 31 30 32 24 10 -6 -21 -3 -20 24 11 33 37 39 55 15 46 -12 -4 -13 -2 -2 14 6 11 15 20 20 20 4 0 6 4 2 9 -3 5 -1 12 5 16 51 32 109 331 69 356 -9 5 -15 33 -16 79 -2 39 -7 79 -13 90 -8 16 -8 18 4 14 20 -8 27 9 20 45 -6 30 -8 31 -65 31 -44 0 -59 4 -59 14 0 8 -13 28 -30 46 -16 18 -30 35 -30 39 0 4 -32 39 -70 79 -79 80 -172 139 -270 173 -84 28 -247 35 -339 14z m329 -35 c51 -14 117 -46 138 -66 8 -8 28 -21 45 -28 55 -23 82 -61 78 -109 -1 -23 -6 -46 -11 -51 -7 -7 -1 -27 18 -56 2 -2 7 2 11 9 7 11 11 9 20 -8 11 -20 10 -21 -38 -21 -38 0 -51 4 -56 18 -12 33 -85 86 -115 84 -16 -1 -33 5 -41 15 -13 15 -12 15 7 3 23 -14 59 -7 49 10 -3 5 -14 10 -24 10 -10 0 -37 7 -60 15 -23 8 -39 10 -36 5 4 -6 -8 -10 -27 -10 l-33 0 27 14 c15 8 40 16 55 18 26 3 28 7 29 46 1 23 -3 42 -9 42 -5 0 -7 6 -4 14 7 16 -15 25 -93 38 -110 18 -153 17 -187 -4 -18 -11 -33 -17 -33 -13 0 3 -5 3 -12 -1 -23 -15 26 -21 54 -7 15 8 44 16 65 18 28 4 31 3 14 -3 -14 -4 -27 -14 -29 -21 -3 -9 0 -11 7 -7 18 11 42 -14 36 -35 -4 -11 -2 -19 4 -19 6 0 11 -7 11 -16 0 -8 4 -13 8 -10 10 6 9 57 -2 74 -9 14 2 35 14 27 5 -3 30 -8 56 -10 58 -6 74 -18 68 -53 -7 -42 -39 -62 -93 -60 -25 2 -49 6 -52 11 -3 4 -27 3 -53 -4 -35 -9 -44 -14 -34 -21 10 -8 9 -9 -4 -4 -10 3 -21 -1 -25 -8 -5 -8 -26 -23 -48 -35 -22 -11 -35 -21 -30 -21 5 0 -3 -11 -18 -25 -38 -36 -34 -41 8 -10 19 15 39 24 45 20 7 -4 14 1 16 13 9 33 124 58 124 27 0 -8 4 -15 9 -15 5 0 16 -3 25 -6 10 -4 16 -1 16 9 0 54 157 5 245 -77 15 -14 31 -23 36 -21 10 7 40 -36 33 -47 -3 -5 -3 -16 0 -24 5 -12 10 -13 27 -3 18 9 19 13 8 21 -11 7 -9 8 6 6 17 -3 20 -12 22 -53 2 -34 0 -44 -6 -30 -5 11 -6 25 -4 32 3 7 -3 10 -14 8 -10 -2 -22 -4 -27 -4 -5 -1 -2 -9 7 -19 26 -28 22 -55 -5 -47 -38 12 -43 11 -40 -7 2 -12 -3 -18 -14 -18 -15 0 -13 -5 9 -28 30 -31 35 -52 12 -52 -8 0 -17 -11 -21 -25 -3 -13 -15 -27 -25 -30 -10 -4 -19 -9 -19 -13 0 -12 -47 -62 -58 -62 -8 0 -8 9 0 33 14 41 24 52 33 36 5 -8 4 -10 -3 -5 -7 4 -12 2 -12 -3 0 -21 20 -10 35 19 16 31 21 95 7 86 -5 -3 -9 11 -10 31 -1 20 -9 45 -19 55 -17 19 -18 19 -26 -18 -4 -22 -23 -55 -47 -80 -22 -24 -42 -55 -46 -69 -4 -17 -11 -24 -20 -21 -11 4 -14 -5 -14 -38 0 -32 -6 -48 -25 -66 -14 -13 -25 -29 -25 -36 0 -16 125 108 150 149 25 40 27 65 5 47 -8 -7 -12 -16 -9 -21 3 -5 -2 -12 -10 -15 -9 -3 -13 -11 -9 -17 3 -6 1 -7 -5 -3 -7 4 -12 1 -12 -8 0 -16 -18 -31 -26 -23 -5 5 29 59 69 111 22 29 44 55 40 47 -1 -2 4 -9 11 -16 7 -7 12 -24 10 -37 -1 -12 -3 -30 -4 -38 -1 -11 -3 -10 -9 4 -6 15 -10 11 -26 -23 -10 -23 -36 -57 -57 -76 -21 -19 -38 -37 -38 -40 0 -12 67 -4 88 11 20 14 22 14 22 -1 0 -8 -5 -24 -12 -34 -9 -15 -8 -22 5 -36 9 -9 17 -21 17 -27 0 -6 8 -20 18 -31 9 -11 13 -22 7 -24 -24 -8 -39 -22 -32 -29 4 -4 20 1 35 13 29 21 129 32 117 13 -3 -5 1 -10 9 -10 18 0 22 -25 6 -35 -5 -3 -10 -18 -10 -31 0 -17 -4 -24 -12 -20 -108 44 -213 69 -324 75 -103 7 -126 11 -149 30 -22 16 -31 19 -42 10 -7 -7 -16 -9 -20 -5 -4 3 1 12 10 19 16 11 16 14 2 35 -9 12 -24 22 -34 22 -9 0 -30 13 -47 28 -64 62 -118 71 -157 26 -21 -24 -25 -38 -23 -79 2 -57 44 -135 83 -156 13 -7 23 -20 22 -28 -1 -9 0 -23 4 -31 9 -26 20 -75 18 -84 -5 -20 21 -35 45 -25 30 11 74 12 74 1 0 -4 21 -6 48 -3 72 5 49 -5 -80 -34 l-118 -26 -57 40 c-162 110 -275 325 -271 516 l1 70 7 -71 c4 -39 11 -80 14 -92 4 -11 9 -30 11 -41 6 -33 54 -123 73 -137 9 -8 13 -14 9 -14 -4 0 4 -12 18 -27 14 -16 23 -33 21 -40 -3 -7 1 -10 10 -6 7 3 14 0 14 -6 0 -6 8 -11 18 -12 11 0 12 -2 4 -6 -8 -3 0 -11 20 -22 18 -9 32 -22 30 -30 -1 -7 2 -10 8 -6 10 6 53 -18 46 -26 -2 -2 7 -5 20 -5 13 -1 24 1 24 5 0 3 -27 23 -60 45 -124 79 -236 243 -261 381 -6 33 -9 108 -6 167 2 60 1 105 -4 102 -5 -3 -6 2 -3 10 3 9 11 13 18 9 7 -4 6 -1 -2 9 -10 12 -8 20 13 42 26 28 34 52 13 40 -8 -4 -10 -3 -5 2 5 5 11 7 13 4 2 -3 20 20 40 50 151 229 423 332 684 260z m25 -130 c3 -5 1 -10 -4 -10 -6 0 -11 5 -11 10 0 6 2 10 4 10 3 0 8 -4 11 -10z m-195 -40 c0 -5 -7 -7 -15 -4 -8 4 -15 8 -15 10 0 2 7 4 15 4 8 0 15 -4 15 -10z m45 -28 c-3 -3 -11 0 -18 7 -9 10 -8 11 6 5 10 -3 15 -9 12 -12z m457 -68 c6 -24 14 -34 23 -30 8 3 17 1 20 -4 4 -6 0 -10 -7 -11 -7 0 -4 -4 7 -9 17 -7 15 -9 -11 -9 -29 -1 -32 3 -49 54 -9 30 -21 53 -26 49 -5 -3 -6 2 -3 10 5 14 8 14 21 1 8 -9 19 -31 25 -51z m-15 -158 c-1 -52 -5 -71 -13 -65 -6 5 -14 5 -18 1 -5 -4 -7 22 -5 58 4 60 8 69 36 79 1 1 1 -32 0 -73z m160 48 c4 -10 8 -12 13 -5 3 7 7 -5 8 -26 0 -21 1 -49 1 -61 1 -13 -1 -28 -5 -33 -5 -9 -64 -13 -64 -5 0 14 14 36 22 36 5 0 7 -4 4 -9 -3 -5 1 -11 9 -15 8 -3 15 -1 15 4 0 19 -42 120 -50 120 -14 0 -20 -29 -10 -55 15 -40 2 -82 -27 -88 -39 -7 -63 26 -63 88 0 29 3 55 7 58 3 4 35 7 70 7 49 0 65 -4 70 -16z m-224 -136 c8 -30 6 -30 -26 -2 l-28 24 24 0 c17 0 26 -7 30 -22z m51 -13 c20 -19 34 -23 61 -20 30 4 35 2 35 -15 0 -11 5 -20 11 -20 6 0 8 9 4 21 -5 16 -3 20 6 17 8 -3 15 -10 15 -16 1 -7 2 -16 3 -22 0 -5 8 -10 16 -10 10 0 15 -10 15 -30 0 -34 -14 -38 -48 -14 -20 14 -22 14 -22 0 0 -9 -3 -16 -7 -16 -12 0 -63 53 -63 66 0 6 -16 26 -35 43 -19 17 -35 33 -35 36 0 12 19 3 44 -20z m-59 -25 c-3 -5 3 -6 14 -3 14 3 22 -4 32 -26 8 -17 17 -31 22 -31 4 0 15 -16 24 -35 14 -29 15 -37 3 -48 -9 -8 -11 -8 -6 0 3 6 1 15 -5 18 -5 4 -8 13 -5 21 3 8 1 14 -5 14 -6 0 -8 3 -6 8 2 4 -4 15 -15 25 -23 21 -23 20 2 -28 11 -22 20 -59 20 -84 0 -44 0 -44 20 -26 11 10 23 35 26 55 4 26 11 36 25 36 10 0 19 -4 19 -8 0 -4 6 -7 13 -5 6 1 12 -7 12 -18 0 -11 4 -26 8 -32 6 -10 0 -13 -22 -13 -35 0 -91 -43 -91 -71 0 -10 5 -19 10 -19 6 0 10 6 10 14 0 16 46 56 64 56 6 0 -6 -16 -27 -36 -35 -34 -46 -54 -29 -54 9 0 39 20 30 20 -8 0 51 60 59 60 3 0 2 -8 -2 -17 -4 -10 -9 -32 -10 -50 -5 -43 -33 -95 -47 -87 -7 5 -8 3 -3 -5 4 -8 -2 -25 -15 -43 -14 -20 -19 -33 -12 -40 23 -23 101 133 103 207 1 42 2 45 8 20 6 -27 8 -24 14 25 15 114 12 162 -13 182 -26 21 -21 33 9 23 12 -3 21 -15 21 -26 0 -10 7 -19 15 -19 36 0 4 -201 -50 -318 -35 -74 -53 -101 -113 -172 -27 -32 -44 -41 -90 -51 -64 -13 -555 -19 -568 -6 -4 4 -1 14 7 22 11 11 24 12 54 5 63 -13 266 -21 310 -11 l40 9 -40 2 c-22 1 -58 3 -80 5 -47 4 -150 10 -217 13 -55 2 -63 18 -16 30 24 6 36 17 43 38 5 16 20 37 33 47 12 10 22 28 22 39 0 14 5 18 16 14 9 -3 27 -6 40 -6 17 0 23 -4 18 -12 -6 -10 -4 -10 7 0 14 13 63 17 56 5 -3 -5 5 -9 16 -9 45 -4 93 -16 134 -35 24 -10 56 -19 72 -19 24 0 28 -4 24 -19 -3 -11 -19 -32 -36 -47 -37 -33 -27 -39 49 -25 56 11 119 52 111 74 -1 5 -22 10 -45 11 -53 3 -59 9 -44 49 18 49 15 64 -17 86 -24 17 -34 19 -56 11 -29 -11 -29 -10 17 54 15 21 28 47 28 58 0 22 8 23 32 1 10 -9 18 -28 18 -43 0 -14 7 -35 16 -46 15 -18 15 -18 9 6 -3 14 -9 54 -12 90 -3 36 -12 79 -20 95 -12 25 -13 26 -8 5 3 -14 8 -36 12 -49 4 -18 3 -22 -7 -16 -9 6 -10 3 -1 -14 7 -11 8 -21 2 -21 -5 0 -11 7 -15 15 -3 8 -13 15 -21 15 -9 0 -14 -4 -11 -9 8 -12 -77 -135 -96 -139 -15 -3 -29 19 -27 42 0 5 -5 12 -11 16 -9 5 -9 17 -2 44 9 30 8 36 -6 36 -12 0 -11 5 8 25 13 14 29 25 36 25 8 0 24 18 36 40 13 22 26 40 29 40 4 0 9 -17 12 -38 4 -21 13 -46 21 -57 12 -17 17 -18 28 -6 7 8 8 11 2 8 -15 -8 -39 47 -30 68 3 9 2 13 -4 10 -6 -4 -10 10 -10 34 0 32 3 39 15 35 8 -4 13 -10 10 -14z m-1038 -12 c-2 -12 -9 -24 -16 -26 -9 -3 -9 2 0 22 15 32 20 33 16 4z m1263 -145 c0 -32 -5 -28 -14 10 -4 19 -3 26 4 22 5 -3 10 -18 10 -32z m-893 -40 c-10 -9 23 -43 41 -43 9 0 12 -3 9 -7 -10 -10 31 -35 45 -27 7 4 8 3 4 -4 -4 -7 -2 -12 3 -12 6 0 10 -10 8 -21 -2 -18 7 -25 48 -39 l50 -18 -28 -11 c-16 -6 -34 -11 -42 -11 -7 0 -40 -13 -73 -30 -72 -35 -79 -36 -87 -10 -3 11 -10 20 -15 20 -9 0 -62 74 -73 104 -5 13 0 24 18 38 14 11 22 24 19 30 -4 6 -2 8 4 4 6 -3 17 2 24 12 7 10 20 21 28 25 21 8 24 8 17 0z m-72 -19 c-11 -8 -26 -22 -32 -31 -7 -9 -13 -12 -13 -5 0 16 37 52 53 52 6 0 3 -7 -8 -16z m313 -177 c9 -10 6 -17 -8 -27 -11 -8 -20 -21 -20 -30 -1 -18 -25 -52 -37 -51 -17 1 -43 -11 -43 -20 0 -5 -7 -9 -16 -9 -10 0 -14 -6 -10 -15 7 -18 -20 -33 -57 -30 -32 2 -32 3 -41 32 -7 21 -5 21 26 12 42 -12 51 -11 43 1 -3 6 -17 10 -30 10 -36 0 -58 26 -42 50 6 11 16 20 22 20 6 0 28 10 50 21 35 19 110 44 141 48 6 0 16 -5 22 -12z m511 -83 c9 -8 -23 -34 -36 -30 -8 3 -11 1 -8 -4 3 -6 -4 -10 -17 -11 -13 0 -31 -2 -42 -4 -17 -3 -16 -2 3 19 12 12 21 28 21 35 0 8 11 10 38 5 20 -4 39 -8 41 -10z"/> <path d="M1320 2263 c-14 -9 -28 -21 -32 -27 -9 -14 -37 -16 -44 -4 -4 6 -10 5 -15 -3 -7 -11 -9 -11 -9 -1 0 18 -63 -26 -128 -90 -98 -96 -176 -262 -137 -290 6 -5 5 -12 -3 -20 -6 -6 -11 -26 -11 -42 l2 -31 7 35 7 35 3 -30 c2 -16 4 -42 5 -57 1 -17 17 -42 44 -68 39 -38 55 -68 29 -55 -7 4 1 -7 18 -23 18 -17 34 -44 38 -65 4 -20 12 -39 18 -43 7 -5 9 -2 5 9 -3 9 -9 49 -13 89 -6 66 -25 128 -40 128 -4 0 -4 -11 -2 -25 6 -29 -4 -32 -23 -9 -10 12 -10 20 -1 35 7 10 12 22 12 26 0 5 -5 1 -10 -7 -8 -12 -10 -9 -10 13 0 15 -4 27 -10 27 -5 0 -10 4 -10 9 0 13 68 -15 89 -36 17 -17 25 -47 10 -37 -5 3 -7 9 -5 13 3 4 -1 8 -8 8 -10 0 -9 -10 5 -41 10 -23 19 -59 19 -80 0 -38 0 -39 20 -21 28 25 38 85 16 97 -9 5 -16 17 -16 26 0 10 -18 36 -40 57 -22 21 -40 33 -40 26 0 -9 -5 -8 -16 4 -9 9 -29 19 -45 22 -28 5 -29 8 -28 57 1 65 16 108 54 148 17 17 30 35 30 40 0 5 11 18 25 29 14 12 18 18 10 14 -8 -4 1 6 20 21 19 16 44 38 55 49 11 11 23 21 28 21 4 1 8 2 10 4 9 7 36 7 31 -1 -3 -5 -12 -9 -20 -9 -8 0 -20 -11 -26 -25 -6 -14 -16 -25 -21 -25 -5 0 -2 -11 6 -24 15 -22 14 -25 -9 -47 l-24 -23 2 23 c4 31 -17 38 -32 12 -7 -14 -7 -21 0 -21 5 0 10 7 10 15 0 8 4 15 10 15 10 0 6 -52 -6 -71 -5 -9 -2 -10 10 -6 10 4 20 7 22 7 2 0 4 6 4 14 0 7 12 21 26 31 15 9 24 13 21 8 -12 -18 18 -47 39 -38 10 4 23 7 27 6 5 -1 6 3 3 8 -3 5 1 15 10 22 9 7 20 24 25 37 7 19 12 22 23 13 14 -12 26 -5 26 15 0 15 -29 23 -50 14 -8 -4 -35 -16 -59 -28 -31 -16 -48 -19 -55 -12 -15 15 4 41 40 59 16 8 37 18 46 23 10 4 24 8 32 8 7 0 19 7 26 15 15 18 50 20 50 2 0 -19 -20 -36 -35 -31 -7 3 -16 1 -20 -5 -3 -6 1 -11 11 -11 9 0 22 -7 28 -15 7 -9 19 -12 34 -9 18 5 20 9 11 20 -7 8 -9 18 -5 21 4 4 10 2 14 -4 5 -8 13 -9 22 -3 12 8 12 10 -2 15 -9 4 -15 12 -13 18 7 18 -22 50 -36 41 -8 -4 -10 -3 -5 4 8 13 -6 16 -18 5 -4 -4 -15 -8 -24 -8 -9 0 -17 -6 -17 -14 0 -8 -6 -16 -12 -18 -19 -7 -15 12 6 31 11 10 25 15 30 11 6 -3 11 -1 11 4 0 16 -22 13 -50 -6z m-49 -181 c-11 -8 -21 -21 -21 -28 0 -8 -7 -14 -15 -14 -10 0 -14 9 -12 30 1 20 7 30 18 30 9 0 23 7 30 17 13 15 14 15 18 -3 2 -11 -5 -24 -18 -32z m-268 -328 c12 -24 14 -41 8 -52 -8 -14 -10 -12 -16 13 -3 17 -10 38 -16 47 -11 22 -11 28 -1 28 5 0 16 -16 25 -36z"/> <path d="M1447 2090 c-14 -11 -28 -20 -31 -20 -3 0 -25 -13 -48 -30 l-41 -30 29 -1 c16 0 41 -2 57 -3 15 -1 27 3 27 9 0 5 4 4 9 -4 7 -11 12 -3 21 30 7 24 14 47 16 51 11 17 -16 16 -39 -2z m6 -40 c4 -17 2 -18 -14 -9 -11 5 -17 14 -14 20 10 15 22 10 28 -11z m-53 -20 c0 -5 -7 -10 -16 -10 -8 0 -12 5 -9 10 3 6 10 10 16 10 5 0 9 -4 9 -10z"/> <path d="M1170 2028 c0 -9 5 -20 10 -23 13 -8 13 5 0 25 -8 13 -10 13 -10 -2z"/> <path d="M1275 2010 c-3 -6 1 -7 9 -4 18 7 21 14 7 14 -6 0 -13 -4 -16 -10z"/> <path d="M1325 1990 c-4 -6 -68 -10 -160 -10 -151 0 -200 -10 -133 -28 32 -8 33 -10 36 -68 1 -35 -1 -54 -6 -46 -7 10 -11 10 -22 -3 -10 -13 -9 -15 8 -15 12 0 36 -13 55 -30 22 -19 37 -26 44 -19 6 6 19 6 33 1 l24 -9 -27 -7 c-15 -3 -27 -11 -27 -17 0 -6 15 -2 34 9 56 33 103 33 108 0 6 -41 23 -24 26 24 3 42 9 55 52 99 27 28 52 60 55 70 3 10 13 19 22 21 15 3 15 5 -1 21 -14 14 -21 15 -33 6 -10 -9 -11 -14 -2 -20 9 -5 4 -17 -16 -41 -16 -18 -32 -32 -37 -30 -4 1 -7 -1 -6 -5 5 -18 -26 -50 -44 -45 -13 3 -18 -1 -18 -16 0 -11 -4 -22 -10 -24 -20 -6 -140 4 -140 13 0 4 14 15 30 24 17 9 30 22 30 31 0 10 -10 6 -32 -15 -23 -21 -35 -27 -40 -18 -5 8 -8 6 -8 -5 0 -10 -4 -18 -9 -18 -19 0 -28 28 -29 88 l0 62 30 0 c16 0 27 -4 24 -9 -3 -5 20 -9 52 -8 92 0 98 -2 110 -29 14 -30 36 -22 29 12 -4 24 6 33 17 15 3 -5 15 -7 26 -4 11 3 18 9 15 13 -3 5 -15 6 -26 3 -18 -5 -20 -3 -14 16 6 21 -8 30 -20 11z m-15 -30 c0 -5 -2 -10 -4 -10 -3 0 -8 5 -11 10 -3 6 -1 10 4 10 6 0 11 -4 11 -10z"/> <path d="M1856 1984 c-10 -25 -7 -34 9 -34 8 0 15 9 15 19 0 26 -16 35 -24 15z"/> <path d="M1489 1957 c-128 -68 -159 -251 -61 -359 45 -50 120 -87 133 -67 6 10 0 18 -24 27 -67 29 -95 72 -104 165 -7 78 9 137 48 182 73 82 194 68 256 -30 13 -20 13 -20 10 0 -1 14 3 20 16 18 17 -1 16 2 -5 24 -62 67 -184 85 -269 40z m-86 -162 c-3 -9 -8 -14 -10 -11 -3 3 -2 9 2 15 9 16 15 13 8 -4z"/> <path d="M1116 1925 c4 -8 8 -15 10 -15 2 0 4 7 4 15 0 8 -4 15 -10 15 -5 0 -7 -7 -4 -15z"/> <path d="M1181 1931 c-9 -6 -10 -11 -2 -15 6 -4 15 -5 20 -2 5 4 11 2 13 -4 4 -12 58 10 58 23 0 11 -25 8 -39 -5 -11 -10 -14 -10 -18 0 -5 14 -13 15 -32 3z"/> <path d="M1156 1706 c3 -9 13 -16 22 -16 8 0 13 1 11 3 -2 1 -12 9 -22 16 -15 12 -17 12 -11 -3z"/> <path d="M1540 1695 c0 -3 4 -13 9 -23 5 -9 15 -32 22 -50 12 -34 25 -37 43 -9 8 12 6 23 -10 43 -17 24 -64 52 -64 39z m60 -63 c0 -15 -2 -15 -10 -2 -13 20 -13 33 0 25 6 -3 10 -14 10 -23z"/> <path d="M1200 1680 c0 -13 28 -25 38 -16 3 4 0 11 -8 16 -20 13 -30 12 -30 0z"/> <path d="M1250 1660 c0 -5 5 -10 10 -10 6 0 10 5 10 10 0 6 -4 10 -10 10 -5 0 -10 -4 -10 -10z"/> <path d="M1628 1549 c-21 -12 -24 -29 -5 -29 6 0 30 5 52 12 38 11 39 12 15 19 -35 10 -43 10 -62 -2z"/> <path d="M1207 1283 c-13 -12 -7 -23 13 -23 13 0 18 5 14 15 -7 16 -17 19 -27 8z"/> <path d="M1135 1196 c42 -35 134 -85 116 -63 -7 9 -10 17 -5 18 10 0 -34 21 -55 25 -8 1 -17 6 -20 11 -3 5 -19 14 -36 21 l-30 13 30 -25z"/> <path d="M2046 1845 c17 -26 29 -31 38 -16 6 10 -10 25 -37 34 -16 6 -16 5 -1 -18z"/> <path d="M2356 2244 c-53 -48 -193 -122 -250 -131 l-35 -5 37 -55 c30 -45 37 -52 43 -36 4 12 0 23 -12 31 -27 19 -23 39 9 46 36 9 92 38 92 49 0 4 4 6 9 3 5 -3 20 3 35 15 14 11 34 21 45 22 11 0 18 4 15 9 -6 9 33 31 44 24 15 -9 13 -300 -3 -411 -18 -127 -59 -302 -80 -342 -8 -16 -15 -36 -15 -45 0 -10 -5 -18 -11 -18 -6 0 -9 -6 -6 -14 3 -7 0 -19 -6 -25 -6 -6 -8 -11 -3 -11 21 0 -43 -65 -90 -91 -30 -17 -54 -33 -54 -35 0 -3 9 0 20 6 11 6 20 8 20 5 0 -4 7 1 16 10 28 27 26 10 -3 -34 -16 -25 -32 -40 -40 -36 -8 2 -11 0 -8 -5 4 -6 -3 -22 -14 -36 -12 -15 -21 -21 -21 -13 0 8 -13 1 -29 -16 -16 -17 -36 -35 -44 -42 -20 -16 -150 -77 -160 -74 -4 0 -20 -5 -35 -13 -15 -8 -41 -16 -57 -19 -17 -3 -43 -10 -60 -14 -16 -5 -42 -9 -57 -8 -16 1 -28 -2 -28 -6 0 -4 -10 -7 -22 -7 -13 0 -70 -1 -128 -1 -70 -1 -123 4 -160 15 -55 16 -162 71 -168 86 -2 4 -8 6 -13 2 -5 -3 -9 1 -9 9 0 17 -47 29 -56 15 -3 -5 -12 -4 -20 3 -43 35 -226 -168 -271 -300 -24 -72 -22 -85 10 -76 65 19 77 28 88 69 20 77 73 168 131 228 32 32 64 58 72 58 8 0 27 -10 43 -23 118 -97 259 -130 464 -108 315 34 540 161 668 375 67 113 127 303 156 493 15 101 20 417 7 484 l-7 37 -49 -44z m-1346 -1239 c0 -2 -10 -9 -22 -15 -22 -11 -22 -10 -4 4 21 17 26 19 26 11z m-84 -89 c-20 -30 -39 -62 -42 -70 -3 -9 -9 -14 -13 -12 -3 2 -7 -9 -8 -24 -3 -46 -29 -97 -52 -103 -25 -6 -27 7 -6 57 8 20 13 36 10 36 -3 0 2 8 10 18 8 9 30 39 50 67 19 27 35 46 35 41 0 -5 9 1 20 14 11 13 20 28 20 33 0 6 3 8 6 4 4 -3 -10 -31 -30 -61z"/> <path d="M2055 1209 c-11 -4 -16 -8 -11 -8 5 -1 -1 -13 -15 -27 -20 -22 -21 -25 -4 -16 21 11 59 52 53 57 -2 1 -12 -1 -23 -6z"/> <path d="M1967 1120 c-14 -11 -30 -20 -36 -20 -6 0 -11 -4 -11 -10 0 -18 21 -10 53 20 36 34 33 40 -6 10z"/> <path d="M1360 1040 c32 -25 80 -42 80 -29 0 5 -8 9 -19 9 -10 0 -30 9 -44 20 -14 11 -29 20 -34 20 -4 0 3 -9 17 -20z"/> <path d="M1788 1023 c-10 -2 -18 -9 -18 -14 0 -6 7 -6 18 -1 9 5 24 12 32 15 13 5 13 5 0 5 -8 0 -23 -2 -32 -5z"/> <path d="M1730 1000 c-13 -8 -12 -10 3 -10 9 0 17 5 17 10 0 12 -1 12 -20 0z"/> <path d="M1600 990 c-68 -4 -82 -7 -50 -10 64 -6 143 0 155 11 6 6 6 8 0 7 -6 -1 -53 -5 -105 -8z"/> <path d="M1000 821 c-11 -4 -15 -21 -15 -59 0 -28 3 -52 8 -52 4 0 7 11 7 24 0 18 7 26 23 29 l22 4 -22 2 c-16 1 -23 7 -23 22 0 19 4 21 30 15 17 -3 29 -2 26 3 -8 12 -39 19 -56 12z"/> <path d="M1271 816 c-15 -18 -5 -40 25 -56 13 -7 24 -19 24 -27 0 -16 -32 -17 -48 -1 -8 8 -12 8 -12 1 0 -16 27 -35 46 -31 9 2 22 11 28 21 9 15 5 23 -24 47 -26 21 -32 32 -24 40 8 8 16 7 28 -6 20 -20 34 -11 16 11 -16 19 -44 19 -59 1z"/> <path d="M1530 810 c-11 -11 -20 -31 -20 -45 0 -27 31 -65 53 -65 29 0 51 28 51 65 0 59 -46 83 -84 45z m66 -24 c9 -38 -4 -66 -31 -66 -27 0 -40 28 -31 66 5 17 13 24 31 24 18 0 26 -7 31 -24z"/> <path d="M1750 810 c-11 -11 -20 -31 -20 -45 0 -44 53 -79 86 -57 15 10 25 64 10 59 -6 -2 -12 -14 -14 -26 -3 -18 -9 -22 -30 -19 -24 3 -27 7 -27 43 0 34 3 40 23 43 13 2 30 -2 38 -8 9 -9 14 -9 14 -2 0 12 -31 32 -49 32 -6 0 -20 -9 -31 -20z"/> <path d="M2040 789 l0 -44 -31 38 c-17 20 -38 37 -47 36 -11 0 -12 -2 -4 -6 7 -3 13 -26 14 -56 l1 -52 6 44 6 45 29 -42 c16 -23 31 -42 35 -42 9 0 7 107 -1 116 -5 4 -8 -12 -8 -37z"/> <path d="M2080 772 c0 -43 4 -62 13 -62 8 0 11 15 9 52 -5 77 -22 85 -22 10z"/> <path d="M2140 810 c-11 -11 -20 -31 -20 -45 0 -29 32 -65 58 -65 20 0 42 18 42 34 0 6 -5 5 -12 -2 -7 -7 -22 -12 -35 -12 -25 0 -39 34 -28 69 8 26 50 28 64 4 9 -15 10 -15 11 -2 0 39 -48 51 -80 19z"/> <path d="M1070 765 c0 -30 5 -55 10 -55 6 0 10 11 10 25 0 14 4 25 8 25 5 0 14 -11 20 -25 6 -14 19 -25 27 -25 13 0 12 4 -5 22 -18 19 -18 23 -5 38 24 26 8 50 -31 50 l-34 0 0 -55z m55 25 c0 -8 -8 -16 -17 -18 -13 -2 -18 3 -18 18 0 15 5 20 18 18 9 -2 17 -10 17 -18z"/> <path d="M1168 765 l4 -55 39 0 c31 0 39 4 38 18 0 10 -3 12 -6 5 -2 -7 -16 -13 -29 -13 -19 0 -24 5 -24 24 0 19 4 22 25 18 15 -2 25 0 25 7 0 6 -11 11 -25 11 -16 0 -25 6 -25 16 0 12 7 15 30 12 17 -3 30 -1 30 4 0 4 -19 8 -42 8 l-43 0 3 -55z"/> <path d="M1358 765 c5 -71 22 -71 22 0 0 37 -4 55 -12 55 -9 0 -12 -16 -10 -55z"/> <path d="M1430 800 c0 -13 -7 -20 -20 -20 -11 0 -20 -5 -20 -11 0 -6 9 -9 20 -6 17 4 20 0 20 -24 0 -20 5 -29 16 -29 13 0 14 3 4 15 -7 8 -10 32 -8 55 2 22 0 40 -4 40 -5 0 -8 -9 -8 -20z"/> <path d="M1638 765 c4 -56 22 -78 22 -27 l1 27 20 -27 c11 -16 27 -28 35 -28 10 0 8 6 -6 20 -16 16 -18 24 -8 39 18 29 3 51 -34 51 l-33 0 3 -55z m55 39 c9 -10 -4 -34 -19 -34 -8 0 -14 9 -14 20 0 19 19 27 33 14z"/> <path d="M1871 769 c-13 -28 -20 -53 -17 -56 3 -3 8 2 12 11 8 20 50 21 58 1 3 -8 9 -15 14 -15 10 0 -29 110 -39 110 -4 0 -16 -23 -28 -51z m39 -11 c0 -5 -7 -8 -15 -8 -17 0 -18 2 -9 25 5 13 8 14 15 3 5 -7 9 -16 9 -20z"/> <path d="M2280 765 c0 -30 5 -55 10 -55 6 0 10 11 10 24 0 18 7 26 23 29 l22 4 -22 2 c-16 1 -23 7 -23 22 0 19 4 21 30 15 19 -3 29 -2 25 4 -3 6 -22 10 -41 10 l-34 0 0 -55z"/> <path d="M2380 765 c-13 -31 -20 -58 -17 -61 3 -3 8 4 12 15 8 25 50 29 59 6 3 -8 10 -15 15 -15 5 0 -1 25 -12 55 -12 30 -25 55 -28 55 -4 0 -17 -25 -29 -55z m40 -7 c0 -5 -7 -8 -15 -8 -17 0 -18 2 -9 25 5 13 8 14 15 3 5 -7 9 -16 9 -20z"/> <path d="M2478 765 c4 -55 22 -79 22 -28 l0 27 30 -34 c32 -38 40 -34 13 6 -13 20 -14 27 -4 34 26 15 8 45 -29 48 l-35 3 3 -56z m52 25 c0 -11 -7 -20 -15 -20 -8 0 -15 9 -15 20 0 11 7 20 15 20 8 0 15 -9 15 -20z"/> <path d="M2578 765 c-1 -30 0 -55 5 -55 4 0 7 17 8 38 l1 37 16 -37 c10 -21 19 -38 22 -38 3 0 12 17 22 38 l16 37 1 -35 c1 -35 15 -60 35 -60 6 0 5 5 -2 12 -7 7 -12 36 -12 65 0 29 -4 53 -8 53 -4 0 -17 -19 -29 -42 l-21 -43 -17 43 c-9 23 -21 42 -25 42 -5 0 -10 -25 -12 -55z"/> <path d="M2052 645 c-17 -14 -35 -25 -41 -25 -6 0 -11 -4 -11 -10 0 -5 9 -10 21 -10 11 0 37 -11 57 -25 20 -14 42 -25 49 -25 19 0 5 24 -25 43 l-27 16 32 1 c21 0 43 -10 65 -29 40 -34 78 -55 86 -47 8 8 -37 54 -60 62 -19 6 -19 7 3 30 29 31 18 42 -18 18 -27 -17 -123 -37 -123 -25 0 4 9 12 20 19 21 13 27 32 11 32 -5 0 -23 -11 -39 -25z"/> <path d="M1968 635 c-19 -17 -39 -25 -65 -25 -21 0 -45 -5 -53 -11 -11 -7 0 -8 37 -4 44 6 57 4 79 -14 40 -31 67 -27 29 5 -29 24 -29 25 -11 39 10 7 16 19 15 24 -2 6 -16 0 -31 -14z"/> <path d="M1410 641 c0 -6 8 -11 18 -12 9 -1 -3 -6 -28 -13 -36 -10 -50 -9 -70 1 -30 16 -60 17 -60 3 0 -6 13 -17 30 -23 28 -12 28 -13 10 -25 -11 -7 -20 -17 -20 -22 0 -20 29 -9 50 18 14 17 35 29 58 33 20 3 45 9 55 14 10 4 17 3 17 -4 0 -6 -7 -11 -15 -11 -8 0 -15 -7 -15 -15 0 -20 19 -19 44 4 12 10 39 21 61 25 39 6 39 6 18 -10 -13 -9 -23 -23 -23 -30 0 -22 27 -16 48 11 14 17 30 25 51 25 l31 0 -20 -20 c-12 -12 -18 -25 -15 -30 7 -12 65 16 65 31 0 6 13 8 33 5 l32 -6 -31 14 c-17 8 -36 22 -43 30 -15 17 -41 22 -41 7 0 -5 6 -12 13 -14 6 -3 -1 -6 -18 -6 -16 0 -39 6 -49 14 -23 18 -60 20 -50 4 7 -11 -27 -9 -103 7 -22 4 -33 2 -33 -5z"/> <path d="M2285 634 c-16 -9 -41 -20 -55 -24 -23 -8 -23 -8 -3 -9 12 -1 43 -19 68 -41 52 -45 55 -46 55 -25 0 8 -16 25 -35 37 -41 27 -43 35 -10 50 14 6 25 15 25 20 0 12 -11 10 -45 -8z"/> <path d="M2387 609 c-10 -6 -34 -9 -52 -7 -19 2 -31 0 -29 -4 3 -4 13 -8 23 -8 10 0 36 -18 59 -40 58 -57 89 -55 35 3 l-28 28 25 19 c23 18 23 20 5 19 -11 0 -28 -4 -38 -10z"/> <path d="M1138 604 c-16 -16 -7 -23 34 -26 l41 -3 -26 -31 c-31 -36 -33 -44 -13 -44 8 0 28 16 44 35 17 19 43 38 59 42 26 7 25 8 -17 14 -25 4 -61 10 -80 14 -19 4 -38 3 -42 -1z"/> <path d="M2485 593 c-16 -9 -41 -16 -55 -15 -25 1 -25 1 2 -9 15 -6 37 -26 48 -45 12 -19 26 -34 31 -34 16 0 10 26 -11 45 -28 26 -25 42 10 49 17 3 30 10 30 16 0 14 -20 12 -55 -7z"/> <path d="M1105 544 c-57 -18 -84 -39 -69 -54 6 -6 22 -1 47 16 21 14 55 32 75 39 51 19 10 17 -53 -1z"/> <path d="M2540 536 c45 -25 100 -34 100 -17 0 11 -49 28 -105 36 l-40 6 45 -25z"/> </g> </svg> 